<svg
  width="100"
  height="100"
  viewBox="0 0 100 100"
  fill="none"
  xmlns="http://www.w3.org/2000/svg"
>
  <rect width="100" height="100" rx="25" fill="white" />
  <path
    fill-rule="evenodd"
    clip-rule="evenodd"
    d="M61.9379 6C47.9888 12.2482 25.574 31.2332 31.9013 53.8738C31.9013 53.8738 24.5852 53.2118 25.962 41.8259C5.99029 62.2146 17.1849 99.0886 49.3871 99.0886C81.5893 99.0886 89.9723 65.7892 80.37 48.8428C54.2084 67.1819 58.3199 20.3338 61.9379 6ZM54.5704 27C46.1252 30.8142 33.4439 48.5081 37.2746 62.329C37.2746 62.329 26.6837 61.1169 27.5173 54.1664C15.4258 66.6126 29.3351 96 48.8313 96C68.3275 96 78.1521 71.0159 72.3386 60.671C56.4996 71.8661 52.38 35.7501 54.5704 27Z"
    fill="#c92424"
  />
  <path
    d="M78.9596 28.0951C86.1611 20.5436 83.6197 9.61194 72.2637 3C77.6488 13.9362 75.5376 16.8582 69.1905 22.6817C65.2747 26.2745 71.6652 35.744 78.9596 28.0951Z"
    fill="black"
  />
  <path
    d="M23.9532 17C22.8764 22.5867 16.3326 24.7685 11.5298 32.9859C6.72695 41.2033 14.7677 52 14.7677 52C14.7677 52 11.298 41.2899 19.0648 36.9276C26.8316 32.5653 27.4703 22.8788 23.9532 17Z"
    fill="black"
  />
  <path
    d="M37.4316 73.2466C46.2555 87.8951 51.595 76.1128 46.3471 55C64.8852 77.537 62.933 92 50.1191 92C37.3052 92 33.6107 78.7939 37.4316 73.2466Z"
    fill="black"
  />
</svg>
