<svg
  width="100"
  height="100"
  viewBox="0 0 100 100"
  fill="none"
  xmlns="http://www.w3.org/2000/svg"
>
  <path
    fill-rule="evenodd"
    clip-rule="evenodd"
    d="M63.5837 9.80389C50.0681 15.8579 28.3498 34.2531 34.4804 56.1901C34.4804 56.1901 27.3917 55.5487 28.7257 44.5166C9.37456 64.2718 20.2214 100 51.423 100C82.6245 100 90.747 67.7353 81.4431 51.3155C56.0944 69.0847 60.0782 23.6923 63.5837 9.80389ZM56.1243 30.1162C47.7205 33.899 35.1014 51.4475 38.9133 65.1549C38.9133 65.1549 28.3744 63.9527 29.2038 57.0593C17.1716 69.4033 31.0127 98.5492 50.4133 98.5492C69.814 98.5492 79.5905 73.7704 73.8054 63.5105C58.044 74.6136 53.9447 38.7944 56.1243 30.1162Z"
    fill="#792424"
  />
  <path
    d="M81.1229 27.7839C88.9245 19.4233 86.1713 7.32037 73.869 0C79.7029 12.108 77.4158 15.343 70.5397 21.7904C66.2975 25.7682 73.2207 36.2524 81.1229 27.7839Z"
    fill="#222222"
  />
  <path
    d="M29.5851 15.0001C28.3824 21.3781 21.0732 23.8688 15.7087 33.2501C10.3441 42.6313 19.3253 54.9572 19.3253 54.9572C19.3253 54.9572 15.4498 42.7302 24.125 37.7501C32.8002 32.7699 33.5135 21.7115 29.5851 15.0001Z"
    fill="#222222"
  />
  <path
    d="M39.8454 74.2535C48.3935 88.5061 53.5662 77.0423 48.4822 56.5001C66.441 78.4279 64.5498 92.5001 52.1364 92.5001C39.7229 92.5001 36.1438 79.6509 39.8454 74.2535Z"
    fill="#222222"
  />
</svg>
